# xmcd
#
# Track frame offsets: 
#        150
#        14190
#        26005
#        41378
#        58387
#        69942
#        80391
#        93033
#        108309
#        118392
#        131199
#
# Disc length: 3294 seconds
#
# Revision: 0
# Processed by: cddbd v1.5.2PL0 Copyright (c) Steve Scherf et al.
# Submitted via: ExactAudioCopy v0.99pb5
#
DISCID=970cdc0b
DTITLE=Visitor's Band - Jon Snodgrass
DYEAR=2009
DGENRE=Country
TTITLE0=Brave With Strangers
TTITLE1=Thru The Fan
TTITLE2=Remember My Name
TTITLE3=Song for Jake Nichols to Sing
TTITLE4=Finally
TTITLE5=Fast in Last
TTITLE6=Long Way Found
TTITLE7=Fast One Sloe
TTITLE8=Not That Rad
TTITLE9=Murderfield
TTITLE10=Visitor's Band
EXTD=
EXTT0=
EXTT1=
EXTT2=
EXTT3=
EXTT4=
EXTT5=
EXTT6=
EXTT7=
EXTT8=
EXTT9=
EXTT10=
PLAYORDER=
